<svg width="34" height="32" viewBox="0 0 34 32" fill="none" xmlns="http://www.w3.org/2000/svg">
<path d="M18.5068 29.4391L0 10.7161C3.88541 4.62597 7.82195 5.8296 9.45792 7.47558L11.5485 9.42788L23.0024 0.335321C23.0024 0.335321 23.5273 -0.189153 24.0522 0.0737529C24.5772 0.336659 24.5772 0.86117 24.5772 0.86117V8.99767C24.5772 8.99767 24.5772 10.0475 24.0522 10.5725C23.5273 11.0974 22.3981 12.1473 22.3981 12.1473L17.0603 16.252C18.2532 17.5208 19.877 19.2443 22.9035 22.0837C25.5524 24.5687 27.1209 23.4222 28.6088 22.0263C28.821 21.8272 29.0641 21.6361 29.5119 21.6361C29.9598 21.6361 30.5077 22.4508 30.5077 22.4508L32.7709 25.9814C32.7709 25.9814 33.0425 26.3435 33.133 26.7961C33.2236 27.2488 32.6804 27.7014 32.6804 27.7014L31.1414 29.2404L29.7577 30.5193C25.5859 33.6467 20.3984 31.1023 18.5068 29.4391Z" fill="#0A1929"/>
<path d="M5.77652 6.01891C3.15186 6.28138 1.40208 8.64357 0.527197 9.9559C0.527197 9.9559 3.8575 8.31596 6.50798 8.91834C9.15846 9.52073 11.5508 9.43097 11.5508 9.43097C10.5009 8.29362 8.40119 5.75645 5.77652 6.01891Z" fill="#818C98"/>
</svg>
