<svg width="92" height="20" viewBox="0 0 92 20" fill="none" xmlns="http://www.w3.org/2000/svg">
<path d="M11.1357 18.0734L1.14441e-05 6.74648C2.33788 3.06213 4.70652 3.79029 5.69088 4.78606L6.94881 5.96714L13.8406 0.466409C13.8406 0.466409 14.1565 0.149118 14.4724 0.308168C14.7882 0.467218 14.7882 0.784532 14.7882 0.784532V5.70688C14.7882 5.70688 14.7882 6.34202 14.4724 6.65958C14.1565 6.97715 13.477 7.61229 13.477 7.61229L10.2653 10.0955C10.983 10.8631 11.9601 11.9058 13.7812 13.6235C15.375 15.1269 16.3188 14.4333 17.2141 13.5888C17.3417 13.4684 17.488 13.3527 17.7575 13.3527C18.027 13.3527 18.3567 13.8456 18.3567 13.8456L19.7184 15.9815C19.7184 15.9815 19.8818 16.2006 19.9363 16.4744C19.9908 16.7482 19.664 17.0221 19.664 17.0221L18.738 17.9531L17.9053 18.7268C15.3952 20.6188 12.2738 19.0795 11.1357 18.0734Z" fill="white"/>
<path d="M3.47457 3.90292C1.8953 4.0617 0.842448 5.49076 0.316024 6.28468C0.316024 6.28468 2.31989 5.29257 3.91469 5.65699C5.5095 6.02142 6.94897 5.96712 6.94897 5.96712C6.31726 5.27905 5.05384 3.74414 3.47457 3.90292Z" fill="#00C07F"/>
<path d="M25.7805 0.729559H38.1725V4.25157H33.7004V19.2453H30.0777V4.25157H25.7805V0.729559Z" fill="white"/>
<path d="M41.6686 0.729559H54.2105V4.25157H45.2913V8.20126H53.1861V11.7233H45.2913V15.7233H54.5602V19.2453H41.6686V0.729559Z" fill="white"/>
<path d="M63.8796 0.729559C65.0288 0.729559 66.0532 0.880503 66.9526 1.18239C67.852 1.46751 68.6015 1.88679 69.2011 2.44025C69.8174 2.97694 70.2838 3.63103 70.6002 4.40252C70.9167 5.15723 71.0749 6.01258 71.0749 6.96855C71.0749 7.72327 70.9583 8.47799 70.7251 9.2327C70.5086 9.98742 70.1422 10.6751 69.6259 11.2956C69.1262 11.9161 68.4599 12.4193 67.6272 12.805C66.7944 13.174 65.7617 13.3585 64.5292 13.3585H61.9309V19.2453H58.3082V0.729559H63.8796ZM64.5042 9.83648C65.0538 9.83648 65.5119 9.74423 65.8783 9.55975C66.2447 9.37526 66.5279 9.14046 66.7277 8.85535C66.9443 8.57023 67.0942 8.27673 67.1774 7.97484C67.2774 7.65618 67.3274 7.36268 67.3274 7.09434C67.3274 6.89308 67.294 6.64151 67.2274 6.33962C67.1774 6.02096 67.0609 5.70231 66.8776 5.38365C66.6944 5.06499 66.4113 4.79665 66.0282 4.57862C65.6618 4.36059 65.1621 4.25157 64.5292 4.25157H61.9309V9.83648H64.5042ZM67.902 12.1006L72.449 19.2453H68.2268L63.5798 12.2013L67.902 12.1006Z" fill="white"/>
<path d="M91.9001 20L79.0334 7.92453L79.1084 19.2453H75.4358V0H75.5857L88.4248 11.8946L88.3524 0.729559H92V20H91.9001Z" fill="white"/>
</svg>
